<svg width="78" height="20" viewBox="0 0 78 20" fill="none" xmlns="http://www.w3.org/2000/svg">
<path d="M3.25816 4.9H6.56016C7.68682 4.9 8.52316 5.16433 9.06916 5.693C9.61516 6.213 9.88816 7.02333 9.88816 8.124V10.776C9.88816 11.8767 9.61516 12.6913 9.06916 13.22C8.52316 13.74 7.68682 14 6.56016 14H3.25816V12.349H4.11616V6.538H3.25816V4.9ZM6.56016 12.362C7.15816 12.362 7.57416 12.2233 7.80816 11.946C8.05082 11.66 8.17216 11.218 8.17216 10.62V8.124C8.17216 7.604 8.05082 7.20967 7.80816 6.941C7.57416 6.67233 7.15816 6.538 6.56016 6.538H5.83216V12.362H6.56016ZM18.6451 12.05H15.5511L15.1091 14H13.3151L15.4861 4.9H18.7101L20.8811 14H19.0871L18.6451 12.05ZM15.9151 10.412H18.2681L17.2151 5.758H16.9811L15.9151 10.412ZM30.6391 14H28.9231V11.27C28.9231 11.062 28.8667 10.893 28.7541 10.763C28.6501 10.633 28.4724 10.568 28.2211 10.568H26.2451V14H24.5291V4.9H28.0131C28.4811 4.9 28.8927 4.965 29.2481 5.095C29.6034 5.225 29.8981 5.407 30.1321 5.641C30.3747 5.86633 30.5567 6.13067 30.6781 6.434C30.8081 6.73733 30.8731 7.06233 30.8731 7.409V7.721C30.8731 8.09367 30.7734 8.44467 30.5741 8.774C30.3747 9.09467 30.0671 9.34167 29.6511 9.515V9.749C29.9544 9.78367 30.1927 9.90067 30.3661 10.1C30.5481 10.2993 30.6391 10.5507 30.6391 10.854V14ZM26.2451 8.93H27.8831C28.2991 8.93 28.6154 8.83467 28.8321 8.644C29.0487 8.44467 29.1571 8.16733 29.1571 7.812V7.656C29.1571 7.35267 29.0487 7.09267 28.8321 6.876C28.6154 6.65067 28.2991 6.538 27.8831 6.538H26.2451V8.93ZM36.757 14H35.041V4.9H36.757V8.631H37.134L39.539 4.9H41.476V4.978L38.668 9.333V9.567L41.632 13.922V14H39.617L37.134 10.269H36.757V14Z" fill="#697C9A"/>
<path d="M77.5133 11.3967C77.3087 11.3453 77.1041 11.3966 76.9251 11.5251C76.2602 12.0901 75.4929 12.5523 74.649 12.8605C73.8562 13.1687 72.9866 13.3228 72.066 13.3228C69.9944 13.3228 68.1019 12.4753 66.7465 11.1142C65.391 9.75303 64.5471 7.85258 64.5471 5.77237C64.5471 4.89919 64.7005 4.0517 64.9563 3.28125C65.2376 2.45944 65.6468 1.71467 66.1838 1.07263C66.414 0.790132 66.3629 0.379226 66.0815 0.148091C65.9025 0.0196826 65.6979 -0.0316807 65.4933 0.0196826C63.3195 0.61036 61.427 1.92012 60.0715 3.66648C58.7672 5.38715 58 7.51872 58 9.83007C58 12.6294 59.1253 15.1719 60.9666 17.0209C62.808 18.87 65.3143 20 68.1275 20C70.4803 20 72.6542 19.1782 74.3932 17.8171C76.1579 16.4303 77.4366 14.4528 77.9737 12.1928C78.076 11.8332 77.8714 11.4737 77.5133 11.3967Z" fill="#697C9A"/>
</svg>
