<svg width="89" height="20" viewBox="0 0 89 20" fill="none" xmlns="http://www.w3.org/2000/svg">
<path d="M4.2662 4.9H5.9822V12.362H10.1162V14H4.2662V4.9ZM14.5962 4.9H20.6802V6.538H18.4962V12.362H20.6802V14H14.5962V12.362H16.7802V6.538H14.5962V4.9ZM27.5001 9.398H31.4001V14H29.8401V12.986H29.6061C29.5021 13.324 29.3028 13.61 29.0081 13.844C28.7135 14.0693 28.2715 14.182 27.6821 14.182C27.2661 14.182 26.8761 14.104 26.5121 13.948C26.1481 13.792 25.8318 13.5623 25.5631 13.259C25.2945 12.947 25.0821 12.5657 24.9261 12.115C24.7701 11.6557 24.6921 11.1227 24.6921 10.516V8.384C24.6921 7.79467 24.7745 7.27467 24.9391 6.824C25.1125 6.36467 25.3465 5.979 25.6411 5.667C25.9445 5.355 26.3041 5.121 26.7201 4.965C27.1361 4.80033 27.5955 4.718 28.0981 4.718C28.6181 4.718 29.0818 4.80467 29.4891 4.978C29.8965 5.14267 30.2431 5.37667 30.5291 5.68C30.8151 5.97467 31.0318 6.32567 31.1791 6.733C31.3265 7.13167 31.4001 7.56067 31.4001 8.02V8.176H29.6841V8.02C29.6841 7.474 29.5411 7.06233 29.2551 6.785C28.9778 6.499 28.5835 6.356 28.0721 6.356C27.5868 6.356 27.1881 6.52067 26.8761 6.85C26.5641 7.17067 26.4081 7.72533 26.4081 8.514V10.438C26.4081 11.842 26.9801 12.544 28.1241 12.544C28.6355 12.544 29.0211 12.4097 29.2811 12.141C29.5498 11.8637 29.6841 11.4953 29.6841 11.036H27.5001V9.398ZM35.3731 4.9H37.0891V8.618H40.0271V4.9H41.7431V14H40.0271V10.256H37.0891V14H35.3731V4.9ZM45.742 4.9H52.294V6.538H49.876V14H48.16V6.538H45.742V4.9Z" fill="white"/>
<path d="M82.5451 6.45502C81.6456 5.55555 80.3757 4.97354 79.0001 4.97354C77.6244 4.97354 76.3546 5.5291 75.4551 6.45502C74.5556 7.35449 73.9736 8.62433 73.9736 10C73.9736 11.3757 74.5556 12.6455 75.4551 13.545C76.3546 14.4444 77.6244 15.0265 79.0001 15.0265C80.3757 15.0265 81.6456 14.4709 82.5451 13.545C83.4445 12.6455 84.0265 11.3757 84.0265 10C84.0265 8.62433 83.471 7.35449 82.5451 6.45502Z" fill="white"/>
<path d="M79.0001 3.4127C79.3705 3.4127 79.6879 3.09524 79.6879 2.72487V0.687831C79.6879 0.31746 79.3705 0 79.0001 0C78.6297 0 78.3123 0.31746 78.3123 0.687831V2.72487C78.3123 3.09524 78.6297 3.4127 79.0001 3.4127Z" fill="white"/>
<path d="M84.6349 5.34392L86.09 3.88889C86.3545 3.62434 86.3545 3.20106 86.09 2.93651C85.8254 2.67196 85.4021 2.67196 85.1376 2.93651L83.6825 4.39154C83.418 4.65609 83.418 5.07937 83.6825 5.34392C83.9206 5.60847 84.3439 5.60847 84.6349 5.34392Z" fill="white"/>
<path d="M88.3123 9.31216H86.2752C85.9049 9.31216 85.5874 9.62962 85.5874 9.99999C85.5874 10.3704 85.9049 10.6878 86.2752 10.6878H88.3123C88.6826 10.6878 89.0001 10.3704 89.0001 9.99999C89.0001 9.62962 88.6826 9.31216 88.3123 9.31216Z" fill="white"/>
<path d="M84.6086 14.6561C84.344 14.3915 83.9207 14.3915 83.6562 14.6561C83.3916 14.9206 83.3916 15.3439 83.6562 15.6085L85.1112 17.0635C85.3758 17.328 85.799 17.328 86.0636 17.0635C86.3281 16.7989 86.3281 16.3757 86.0636 16.1111L84.6086 14.6561Z" fill="white"/>
<path d="M79.0001 16.5873C78.6297 16.5873 78.3123 16.9048 78.3123 17.2751V19.3122C78.3123 19.6825 78.6297 20 79.0001 20C79.3705 20 79.6879 19.6825 79.6879 19.3122V17.2751C79.6879 16.9048 79.3705 16.5873 79.0001 16.5873Z" fill="white"/>
<path d="M73.3651 14.6561L71.9101 16.1111C71.6455 16.3757 71.6455 16.7989 71.9101 17.0635C72.1746 17.328 72.5979 17.328 72.8625 17.0635L74.3175 15.6085C74.582 15.3439 74.582 14.9206 74.3175 14.6561C74.0794 14.3915 73.6561 14.3915 73.3651 14.6561Z" fill="white"/>
<path d="M72.4127 9.99999C72.4127 9.62962 72.0952 9.31216 71.7249 9.31216H69.6878C69.3175 9.31216 69 9.62962 69 9.99999C69 10.3704 69.3175 10.6878 69.6878 10.6878H71.7249C72.0952 10.6878 72.4127 10.3704 72.4127 9.99999Z" fill="white"/>
<path d="M73.3651 5.34392C73.6297 5.60847 74.0529 5.60847 74.3175 5.34392C74.582 5.07937 74.582 4.65609 74.3175 4.39154L72.8625 2.93651C72.5979 2.67196 72.1746 2.67196 71.9101 2.93651C71.6455 3.20106 71.6455 3.62434 71.9101 3.88889L73.3651 5.34392Z" fill="white"/>
</svg>
